<?xml version="1.0" encoding="UTF-8" standalone="no"?>
<svg
   version="1.0"
   width="300.000000pt"
   height="300.000000pt"
   viewBox="0 0 300.000000 300.000000"
   preserveAspectRatio="xMidYMid meet"
   id="svg174"
   sodipodi:docname="89JUK801 (1).svg"
   inkscape:version="1.2 (dc2aedaf03, 2022-05-15)"
   xmlns:inkscape="http://www.inkscape.org/namespaces/inkscape"
   xmlns:sodipodi="http://sodipodi.sourceforge.net/DTD/sodipodi-0.dtd"
   xmlns="http://www.w3.org/2000/svg"
   xmlns:svg="http://www.w3.org/2000/svg">
  <defs
     id="defs178" />
  <sodipodi:namedview
     id="namedview176"
     pagecolor="#ffffff"
     bordercolor="#000000"
     borderopacity="0.25"
     inkscape:showpageshadow="2"
     inkscape:pageopacity="0.0"
     inkscape:pagecheckerboard="0"
     inkscape:deskcolor="#d1d1d1"
     inkscape:document-units="pt"
     showgrid="false"
     inkscape:zoom="0.92998507"
     inkscape:cx="390.86649"
     inkscape:cy="216.1325"
     inkscape:window-width="1920"
     inkscape:window-height="969"
     inkscape:window-x="0"
     inkscape:window-y="0"
     inkscape:window-maximized="1"
     inkscape:current-layer="svg174" />
  <metadata
     id="metadata164">
Created by potrace 1.10, written by Peter Selinger 2001-2011
</metadata>
  <ellipse
     style="fill:#ffdd55;stroke-width:0.825842"
     id="path448"
     cx="75.464035"
     cy="253.04765"
     rx="41.604279"
     ry="40.883858" />
  <g
     transform="translate(0.000000,300.000000) scale(0.100000,-0.100000)"
     fill="#000000"
     stroke="none"
     id="g172">
    <path
       d="M1956 2984 c-113 -35 -177 -99 -250 -251 -177 -363 -212 -612 -147 -1033 16 -102 27 -187 25 -189 -9 -11 -68 106 -90 179 -15 47 -35 115 -46 151 -28 94 -79 156 -160 198 -83 42 -147 50 -231 27 -119 -32 -202 -122 -228 -245 -9 -46 -8 -67 8 -133 10 -43 17 -77 14 -76 -4 2 -29 15 -57 30 -156 82 -369 77 -520 -13 -272 -161 -353 -515 -179 -774 l44 -66 -16 -42 c-11 -28 -16 -75 -16 -142 -1 -121 22 -196 90 -297 50 -77 100 -121 199 -178 202 -115 264 -136 382 -127 83 6 112 24 112 67 0 45 -21 53 -133 54 -87 1 -110 5 -157 27 -81 39 -144 99 -182 177 -31 62 -33 74 -33 167 0 89 3 106 28 157 37 75 128 159 204 188 92 34 221 27 307 -17 52 -27 127 -106 160 -168 30 -58 31 -64 31 -185 0 -123 0 -124 26 -139 53 -30 88 14 96 121 9 130 -24 239 -104 346 l-41 53 21 62 c11 34 22 64 23 66 2 2 17 -14 35 -35 59 -70 142 -145 259 -234 185 -140 245 -218 301 -390 35 -108 57 -149 108 -203 45 -47 100 -80 170 -101 84 -25 114 -22 348 25 141 28 246 128 288 274 23 76 16 151 -25 269 -47 141 -41 167 60 241 83 61 114 137 90 225 -24 88 -124 152 -210 135 -127 -25 -122 -9 80 245 292 368 317 403 340 476 24 79 25 142 4 215 -32 109 -106 195 -214 246 -46 23 -69 27 -145 27 -82 1 -96 -2 -159 -32 -52 -24 -88 -52 -144 -110 -91 -94 -91 -86 3 133 74 172 89 229 80 301 -6 53 -42 139 -74 181 -85 107 -244 157 -375 117z m213 -134 c77 -44 129 -150 116 -235 l-6 -42 -62 26 c-56 24 -74 26 -192 26 -118 0 -136 -3 -195 -27 -35 -15 -65 -26 -66 -25 -1 1 22 52 52 114 57 118 87 151 161 179 52 20 142 12 192 -16z m-28 -356 c95 -28 92 -22 48 -123 -45 -105 -77 -221 -86 -307 l-6 -62 -106 -4 c-128 -6 -197 -29 -278 -95 -30 -24 -57 -42 -61 -39 -12 13 -4 322 11 392 17 85 46 127 121 179 102 70 241 93 357 59z m603 -248 c126 -74 170 -229 101 -354 -14 -26 -39 -62 -55 -81 -26 -31 -30 -33 -36 -15 -52 153 -164 279 -299 335 -30 12 -55 26 -55 30 0 15 90 84 132 102 61 25 153 18 212 -17z m-383 -212 c157 -47 275 -186 286 -338 l4 -61 -80 -101 -81 -101 -52 9 c-71 14 -297 4 -334 -13 -23 -11 -30 -22 -32 -51 -5 -54 26 -72 98 -58 52 10 230 14 230 5 0 -2 -11 -21 -25 -41 -17 -25 -25 -50 -25 -81 0 -112 93 -179 203 -144 45 14 49 14 75 -6 18 -13 28 -31 30 -53 3 -27 -3 -37 -39 -69 -92 -78 -125 -118 -138 -163 l-13 -45 -56 10 c-194 31 -456 -72 -568 -223 -16 -22 -31 -40 -34 -40 -3 0 -24 30 -45 67 -22 38 -77 105 -123 152 l-84 85 12 40 c21 73 80 172 151 256 38 45 69 88 69 95 0 25 -36 58 -64 58 -52 0 -155 -124 -231 -276 -26 -50 -48 -93 -50 -96 -10 -9 -143 119 -202 194 -84 106 -168 272 -167 328 3 118 133 250 260 265 41 4 44 3 54 -24 38 -102 128 -237 169 -254 44 -18 95 -5 125 31 30 36 33 78 11 204 -13 78 -12 81 10 120 54 92 152 153 264 162 38 3 81 3 95 -1 25 -6 26 -9 26 -76 0 -57 4 -74 20 -90 24 -24 57 -26 82 -3 15 14 18 33 18 135 l0 118 41 45 c23 25 45 45 48 45 4 0 32 -7 62 -16z m-1143 -89 c49 -21 81 -52 103 -100 30 -66 26 -82 -24 -89 -94 -14 -211 -91 -273 -179 l-20 -29 -33 106 c-31 99 -32 108 -21 157 28 115 157 180 268 134z m-568 -375 c20 -6 15 -8 -26 -9 -162 -3 -345 -123 -419 -275 -31 -63 -54 -157 -55 -226 -1 -40 -2 -42 -11 -21 -30 76 -18 216 26 307 50 102 157 191 263 220 52 14 183 16 222 4z m146 -164 c139 -64 224 -195 224 -345 0 -83 -10 -91 -58 -50 -174 148 -468 157 -642 19 l-39 -31 -3 33 c-12 131 61 282 169 349 103 64 242 74 349 25z m-91 -405 c26 -6 22 -9 -39 -20 -156 -31 -294 -135 -359 -273 -36 -74 -63 -201 -52 -242 5 -19 5 -19 -5 -3 -22 34 -32 138 -20 206 39 222 264 380 475 332z m1762 -406 c28 -12 35 -23 54 -85 43 -144 -5 -272 -127 -334 -47 -23 -261 -59 -316 -53 -87 11 -170 72 -203 150 -15 37 -15 39 14 91 73 126 234 232 381 249 53 6 161 -4 197 -18z"
       id="path166" />
    <path
       d="M1877 1342 c-36 -39 -11 -102 39 -102 29 0 64 33 64 60 0 27 -35 60 -63 60 -13 0 -31 -8 -40 -18z"
       id="path168" />
    <path
       d="M993 204 c-15 -24 -15 -29 -2 -53 29 -51 109 -33 109 24 0 56 -76 76 -107 29z"
       id="path170" />
  </g>
  <path
     style="fill:#000000;stroke-width:0.526316"
     d="m 88.514174,398.61743 c -7.762116,-1.66529 -17.663916,-6.10992 -32.986621,-14.80675 -9.718222,-5.51585 -15.200687,-9.44073 -20.326668,-14.55182 -8.046942,-8.02357 -16.176886,-21.63585 -18.575068,-31.10097 -3.10678,-12.2618 -2.872404,-28.92113 0.545782,-38.79395 l 1.612447,-4.65726 -4.274597,-6.52585 C 4.2298025,272.48733 0.35539179,259.60105 0.97277595,243.15789 1.6617982,224.80676 8.7993232,208.09796 21.452695,195.21482 c 10.640227,-10.83344 22.233456,-17.16193 37.231516,-20.32386 7.037584,-1.48368 22.187789,-1.3375 29.430936,0.28398 7.136237,1.59754 11.557142,3.21603 19.113603,6.99751 3.39687,1.69989 6.317,3.09071 6.48919,3.09071 0.35756,0 0.31245,-0.25192 -1.85455,-10.35669 -2.3675,-11.03974 -2.05964,-16.73712 1.36728,-25.30306 5.44925,-13.62097 16.55825,-22.60553 31.7591,-25.68562 5.5308,-1.12068 12.38651,-0.79602 17.64181,0.83545 5.11104,1.58669 13.09685,5.784 16.71493,8.78531 7.64178,6.33911 10.46794,11.59605 16.1673,30.07277 4.77005,15.46399 6.2921,19.56463 10.05998,27.10326 2.80307,5.60825 4.4772,8.23279 5.25152,8.23279 0.87707,0 0.53182,-3.57252 -2.132,-22.06132 -3.67874,-25.53295 -4.36716,-33.19954 -4.39918,-48.99131 -0.0551,-27.17687 4.14614,-47.286772 15.6293,-74.811629 13.45622,-32.254265 22.79964,-44.2581952 38.78699,-49.8314888 12.08567,-4.21314083 24.04581,-3.36715579 36.13451,2.5559294 11.95365,5.8569154 18.90608,14.1065734 23.52099,27.9096914 4.52522,13.534861 3.22772,20.166762 -10.0847,51.545915 -11.01279,25.958622 -10.85146,26.910762 2.38426,14.071353 10.10029,-9.797869 14.15177,-12.568227 24.32763,-16.634995 3.309,-1.322432 3.81147,-1.370211 14.48057,-1.376848 12.2245,-0.0076 13.23341,0.180269 20.52632,3.822385 7.77647,3.88361 15.38603,10.245363 20.06552,16.775197 3.18322,4.44193 6.70165,12.1377 8.14556,17.81659 2.40428,9.45599 1.13358,21.9334 -3.17032,31.13063 -3.27485,6.99819 -10.43771,16.71969 -37.93801,51.48983 -23.18676,29.31628 -27.36591,35.23603 -27.36591,38.76369 0,1.88597 1.33165,2.27973 6.19774,1.83264 11.08494,-1.01849 12.02723,-1.01045 15.79775,0.13481 6.62891,2.01347 12.73324,7.07983 15.66122,12.99823 0.72531,1.46609 1.69682,4.51959 2.15892,6.78555 2.07274,10.16403 -2.31033,19.13625 -13.51517,27.66576 -4.99564,3.80286 -9.18072,8.34182 -10.01095,10.85745 -1.2558,3.8051 -0.36257,10.07227 2.91418,20.44668 5.41374,17.14032 6.23395,24.76444 3.72726,34.6461 -4.40262,17.35563 -16.55726,30.89982 -32.39579,36.09934 -3.79751,1.24666 -24.58299,5.39808 -31.95075,6.38141 -7.79572,1.04047 -14.6197,0.46302 -21.46629,-1.81647 -9.00193,-2.99707 -15.12421,-6.71104 -21.14113,-12.82487 -6.53076,-6.63595 -9.66604,-12.46937 -14.91399,-27.74867 -8.1135,-23.62228 -14.27979,-31.49244 -41.063,-52.40961 -14.05117,-10.97369 -19.61066,-15.90846 -29.31354,-26.01961 -4.57492,-4.76742 -8.56293,-8.66984 -8.86224,-8.67204 -0.29932,-0.002 -1.81851,3.86673 -3.37598,8.59764 l -2.83177,8.60164 3.15103,4.16151 c 5.16988,6.82778 7.5345,10.57613 10.21857,16.19828 5.77141,12.08901 7.58538,26.53215 4.95142,39.42411 -1.28278,6.2786 -4.34057,10.39616 -7.7029,10.37258 -1.7848,-0.0125 -5.34165,-2.17661 -6.06792,-3.69192 -0.39931,-0.8331 -0.79284,-6.96578 -1.09659,-17.0889 -0.46106,-15.36534 -0.51098,-15.87623 -1.85877,-19.01931 -4.59048,-10.70516 -15.60527,-23.06569 -24.31657,-27.28745 -12.07653,-5.85264 -30.228727,-6.42568 -42.099685,-1.32902 -9.553706,4.10178 -20.876969,14.99323 -25.859042,24.87292 -2.971822,5.89327 -3.357064,8.26384 -3.357064,20.6576 0,12.90512 0.318075,14.61246 4.141243,22.22901 5.405915,10.76971 12.6488,17.97384 23.62221,23.4958 5.948179,2.99319 8.625995,3.49511 21.447078,4.01993 12.28175,0.50274 14.43608,0.85779 16.40006,2.70285 1.02243,0.96052 1.23151,1.68646 1.23151,4.27573 0,2.82855 -0.16214,3.28093 -1.74231,4.8611 -1.82552,1.82552 -4.18925,2.68034 -9.57347,3.46218 -4.74556,0.68909 -14.273289,0.49335 -18.327936,-0.37654 z M 291.15725,382.87674 c 7.59396,-0.98723 20.25388,-3.49975 24.93334,-4.94832 9.90614,-3.06655 18.45212,-12.47875 21.29615,-23.45474 1.79511,-6.92784 0.88761,-17.5175 -2.25518,-26.31579 -1.75277,-4.90688 -2.77384,-6.22751 -5.83221,-7.54318 -5.67961,-2.4433 -23.12823,-3.50639 -31.03207,-1.89069 -17.54769,3.58711 -35.86213,15.8515 -45.13257,30.22335 -5.14736,7.97988 -5.51584,10.18692 -2.68262,16.06748 4.01856,8.34079 12.52515,15.34921 21.67808,17.86014 3.55063,0.97405 11.54234,0.97479 19.02708,0.002 z M 34.144869,336.38301 c -0.680028,-7.31684 2.903396,-22.09333 7.653173,-31.55836 9.177191,-18.28769 26.996042,-31.36811 48.528763,-35.6239 7.363521,-1.45534 7.616053,-2.38036 0.933642,-3.41989 -6.270815,-0.9755 -15.326242,-0.41794 -21.260447,1.30903 -20.775559,6.04614 -36.706336,24.07247 -39.765866,44.99672 -1.237404,8.46266 0.332046,22.56828 2.956742,26.57407 0.482656,0.73663 0.970391,1.33932 1.083857,1.33932 0.113465,0 0.05503,-1.62765 -0.129864,-3.61699 z m 210.314051,-2.0409 c 6.19434,-8.01185 10.96771,-12.45029 18.96213,-17.63164 10.79209,-6.99456 24.51347,-12.14296 37.63158,-14.11974 6.21201,-0.9361 15.97336,-0.81891 22.28659,0.26755 2.99447,0.51533 5.61801,0.73435 5.83011,0.48671 0.21209,-0.24764 1.01874,-2.42088 1.79257,-4.82943 2.19217,-6.82315 5.81814,-11.36578 16.54835,-20.73178 2.97275,-2.5948 5.78554,-5.45372 6.25067,-6.35317 1.1291,-2.18343 0.97885,-6.21414 -0.32706,-8.77392 -1.34478,-2.63598 -5.11241,-5.28827 -7.51211,-5.28827 -0.98083,0 -3.06973,0.38291 -4.64201,0.8509 -14.20112,4.227 -25.25422,-1.93654 -27.33195,-15.2411 -0.91819,-5.87963 0.18395,-9.83497 4.58928,-16.46988 1.00656,-1.51599 1.6743,-3.00843 1.48388,-3.31655 -0.48925,-0.79162 -19.33511,-0.7239 -26.1494,0.094 -2.99777,0.3598 -7.42424,0.65586 -9.83659,0.6579 -4.29048,0.004 -4.41957,-0.0337 -5.92105,-1.71512 -1.30251,-1.45853 -1.53496,-2.15851 -1.53496,-4.62217 0,-8.41274 3.39524,-9.60334 28.75372,-10.08298 12.51002,-0.23662 15.67071,-0.13828 20.37958,0.63409 3.06527,0.50278 5.91771,0.78195 6.33877,0.62037 0.42105,-0.16157 5.45111,-6.16784 11.17792,-13.34727 l 10.41238,-13.0535 -0.12263,-3.68854 c -0.39526,-11.88998 -3.7003,-21.65822 -10.29071,-30.41483 -7.51901,-9.99042 -17.71951,-16.75724 -30.73917,-20.39179 -7.01698,-1.95886 -6.32437,-2.23199 -13.18009,5.19769 l -4.72455,5.12008 -0.21335,14.9791 c -0.23773,16.6906 -0.48193,18.01504 -3.68125,19.96562 -3.31439,2.02072 -7.36411,0.92497 -10.06672,-2.72379 -1.11852,-1.5101 -1.82009,-6.88629 -1.90929,-14.63115 -0.0496,-4.30636 -0.22158,-4.79089 -2.04054,-5.74927 -1.53094,-0.80662 -13.32712,-0.82695 -18.30615,-0.0315 -12.57373,2.00867 -24.64649,10.05688 -30.87844,20.5849 -3.51556,5.93902 -3.49276,5.38235 -0.92397,22.56434 1.84137,12.31644 1.2266,17.08491 -2.76024,21.41013 -2.68403,2.91182 -5.47764,4.38432 -9.00296,4.74541 -4.58107,0.46923 -6.98183,-0.52091 -10.88335,-4.48861 -5.59222,-5.68706 -14.15558,-19.60879 -17.8677,-29.04808 -1.81469,-4.61444 -2.23969,-4.90092 -6.67699,-4.50081 -9.37887,0.8457 -18.2076,5.51909 -25.73918,13.62473 -6.38035,6.86666 -9.71251,13.67365 -10.09669,20.62565 -0.1967,3.55944 -0.0153,4.86161 1.1731,8.42105 3.82782,11.46489 13.75216,28.53748 23.0251,39.60948 7.24974,8.65628 22.59677,23.28525 24.4282,23.28525 0.35373,0 3.1103,-4.67764 6.12571,-10.39474 8.34997,-15.83125 13.49385,-23.70003 20.62019,-31.54342 3.62591,-3.99074 8.77182,-7.53553 10.9392,-7.53553 2.27254,0 4.95626,1.43549 6.74835,3.6096 2.73853,3.32232 2.55934,3.71539 -7.35198,16.12724 -10.82412,13.55496 -17.3469,24.69792 -20.28859,34.65931 l -1.48506,5.02882 8.00226,8.25594 c 9.25001,9.54325 15.75013,17.43851 19.89176,24.1612 3.70422,6.01266 5.31237,8.15789 6.11549,8.15789 0.35093,0 1.69096,-1.36184 2.97784,-3.02631 z m -108.91021,-67.831 c 0.42788,-1.2965 0.54675,-4.38155 0.37011,-9.60526 -0.27587,-8.15796 -1.34844,-13.0869 -4.30016,-19.76128 -4.9607,-11.21701 -16.77884,-22.04716 -28.49531,-26.11313 -8.226318,-2.85478 -19.572492,-3.48924 -28.216018,-1.5778 -19.8445,4.38845 -33.954249,20.00808 -37.561488,41.58093 -0.845116,5.05416 -0.842805,14.85444 0.0037,15.70094 0.144173,0.14417 2.457399,-1.4124 5.140504,-3.45906 6.260866,-4.77575 11.439868,-7.53826 18.31871,-9.77131 8.556347,-2.77762 11.798095,-3.24216 22.612295,-3.24036 8.271352,0.002 10.562174,0.18615 15.22041,1.22757 12.101077,2.7054 19.620477,6.39361 31.305207,15.35501 1.14219,0.87597 2.6992,1.57369 3.51182,1.57369 1.21164,0 1.56707,-0.32478 2.09022,-1.90994 z M 20.263158,259.23177 c 0,-7.75411 2.754416,-19.93097 6.433668,-28.4423 5.180927,-11.98519 17.252388,-24.38855 30.408437,-31.24449 9.113705,-4.74937 18.834016,-7.43972 26.879984,-7.43972 3.935695,0 5.051306,-0.69253 2.756948,-1.71142 -2.386874,-1.05997 -24.169006,-0.83581 -28.740163,0.29577 -15.533608,3.8453 -31.46656,17.7191 -37.482457,32.63827 -3.695865,9.16559 -5.355391,23.09775 -3.803963,31.93528 0.889493,5.06689 2.213213,8.65728 3.010201,8.16471 0.29554,-0.18265 0.537345,-2.0709 0.537345,-4.1961 z M 136.25563,190.77594 c 2.6028,-3.92009 8.70181,-10.26608 12.8578,-13.37847 7.65421,-5.73218 15.0335,-9.29496 22.89441,-11.05361 5.61392,-1.25594 6.09839,-1.48109 6.48279,-3.01265 0.95314,-3.79761 -2.83771,-12.65751 -7.33961,-17.15398 -10.40541,-10.39286 -27.4751,-10.21434 -37.99313,0.39735 -3.50425,3.53547 -5.64853,7.44811 -6.83123,12.46492 -1.4278,6.05646 -1.26401,7.03771 4.04773,24.24997 1.76432,5.71711 3.37489,10.39474 3.57905,10.39474 0.20417,0 1.24015,-1.30872 2.30219,-2.90827 z m 234.87715,-30.90752 c 4.73321,-5.14873 8.96785,-12.07291 11.05976,-18.08413 1.28139,-3.68215 1.44381,-4.8982 1.43333,-10.73166 -0.0103,-5.70963 -0.19882,-7.14438 -1.42713,-10.85817 -3.67257,-11.10393 -13.23856,-20.202049 -24.304,-23.115292 -4.80845,-1.265936 -13.8343,-1.133021 -18.29596,0.269432 -5.88305,1.849247 -19.86194,12.01022 -19.86194,14.43725 0,0.45327 3.43079,2.45792 8.55263,4.99742 9.40469,4.66302 13.89238,7.76029 19.89954,13.73405 8.14875,8.10345 13.05453,15.97976 18.93705,30.40373 0.70364,1.72534 1.69153,1.46581 4.00672,-1.05263 z M 228.49364,146.58871 c 7.78977,-5.74234 10.97517,-7.5564 16.55823,-9.42981 5.74005,-1.92608 12.66836,-2.90394 24.13743,-3.40676 5.52349,-0.24216 10.17549,-0.57308 10.33779,-0.73538 0.1623,-0.1623 0.62849,-3.21668 1.03597,-6.7875 1.66784,-14.61567 6.35939,-30.792044 13.61431,-46.941892 1.95043,-4.341757 2.2733,-7.185052 0.95173,-8.381057 -1.17782,-1.065916 -4.83037,-2.422279 -11.22404,-4.168011 -3.87308,-1.057505 -5.5918,-1.205068 -13.6419,-1.171232 -8.1842,0.03442 -9.77762,0.190995 -14.29976,1.405295 -10.41487,2.796632 -19.39035,7.836353 -25.82336,14.499795 -5.47705,5.673242 -8.22089,12.336805 -9.32628,22.649382 -1.29368,12.06924 -2.05949,39.24491 -1.26854,45.01553 0.25336,1.84842 0.5588,2.44188 1.25681,2.44188 0.50715,0 3.96838,-2.24561 7.69161,-4.99024 z m 19.60572,-94.068038 c 3.80055,-1.351389 5.53151,-1.629068 12.43484,-1.994774 4.41083,-0.233665 12.37138,-0.235664 17.69011,-0.0044 10.4572,0.454607 11.38957,0.672051 21.57533,5.031739 l 4.13867,1.771421 0.39926,-1.425463 c 0.2196,-0.784032 0.39022,-4.504437 0.37916,-8.267595 -0.0178,-6.063244 -0.17496,-7.246008 -1.38043,-10.39029 -1.99001,-5.190623 -4.49296,-9.126745 -8.16699,-12.8433 -5.52069,-5.584606 -12.31925,-8.0822 -22.00008,-8.0822 -11.7033,0 -19.98805,4.970672 -26.30568,15.782853 -2.838,4.857029 -11.84417,23.5485 -11.85616,24.606353 -0.005,0.438426 1.41657,0.11671 4.33472,-0.981016 2.38815,-0.898358 6.32892,-2.339847 8.75725,-3.203307 z"
     id="path303"
     transform="scale(0.75)" />
  <path
     style="fill:#ffdd55;stroke-width:0.526316"
     d="m 238.66134,333.12479 c -7.44707,-11.80237 -11.02825,-16.27951 -23.29967,-29.12888 l -7.26992,-7.6123 1.87928,-5.61615 c 3.28804,-9.82615 9.55899,-20.55169 18.45053,-31.55693 6.98715,-8.64814 10.26265,-13.37766 10.26265,-14.81829 0,-3.36693 -4.63077,-7.55013 -8.35793,-7.55013 -7.14093,0 -19.60601,14.40996 -30.45226,35.20363 -1.6025,3.07221 -3.96366,7.5479 -5.24701,9.94598 l -2.33337,4.36013 -2.1497,-1.5809 c -6.76148,-4.97244 -19.72947,-18.42061 -26.4241,-27.40253 -10.26976,-13.77853 -19.7813,-33.2367 -19.76622,-40.43667 0.0155,-7.40469 4.10869,-15.64382 11.35332,-22.85294 6.54689,-6.5148 14.23298,-10.69479 22.16715,-12.05535 5.49932,-0.94303 6.07639,-0.64495 8.05008,4.15818 6.2968,15.32376 17.76379,31.52977 23.48426,33.18973 5.42288,1.57361 10.69343,0.20594 14.71881,-3.81943 5.02773,-5.02773 5.47504,-9.98552 2.56197,-28.39546 -1.60316,-10.13158 -1.5189,-10.91357 1.76081,-16.34231 5.4185,-8.96894 15.25916,-16.23909 26.05794,-19.25124 7.22547,-2.01544 21.3784,-2.33972 23.18685,-0.53128 0.34269,0.34269 0.82345,4.34536 1.14154,9.50421 0.59089,9.58336 0.84989,10.40016 4.05697,12.79459 1.98859,1.48469 6.00269,1.71501 8.29615,0.47599 3.6194,-1.95534 3.88125,-3.2179 4.19504,-20.22721 l 0.27865,-15.10499 4.67039,-5.05713 c 6.63489,-7.18431 5.92762,-6.90322 12.48153,-4.96054 10.97074,3.25189 17.9886,7.35637 25.50067,14.91438 9.41404,9.47159 13.93752,19.44678 14.85339,32.75466 l 0.39812,5.78484 -9.64702,12.07109 c -5.30587,6.6391 -10.09965,12.63035 -10.65285,13.3139 l -1.00581,1.24281 -6.07951,-0.91901 c -10.69818,-1.61719 -41.77629,-0.44078 -45.81389,1.73421 -2.61024,1.4061 -3.61446,3.21176 -3.81319,6.85639 -0.23455,4.30187 0.39426,6.08595 2.64768,7.51215 1.53577,0.97199 2.26864,1.05867 6.72365,0.79516 2.75,-0.16266 6.77631,-0.52463 8.94736,-0.80439 2.17106,-0.27975 8.76682,-0.51904 14.65726,-0.53175 l 10.70988,-0.0231 -1.03637,1.71053 c -0.57,0.94079 -1.86941,3.07345 -2.88758,4.73924 -4.87102,7.96932 -3.24563,19.34687 3.66635,25.66402 5.25517,4.80294 12.61937,6.09061 21.21295,3.70921 5.26773,-1.45976 6.36722,-1.3833 8.97766,0.62437 2.96246,2.27842 4.17354,4.67367 4.17354,8.25438 v 2.87605 l -4.86775,4.50058 c -14.00035,12.94429 -17.12598,16.90832 -19.11124,24.23741 -0.50966,1.88158 -0.98792,3.50056 -1.06278,3.59772 -0.0749,0.0972 -2.46452,-0.23319 -5.31033,-0.73412 -23.49153,-4.13504 -53.84408,5.44209 -71.67922,22.61691 -2.13038,2.05152 -5.29813,5.56555 -7.03944,7.80897 -1.74132,2.24342 -3.32436,4.07895 -3.51788,4.07895 -0.19351,0 -1.40735,-1.67279 -2.69739,-3.71732 z m 22.00173,-100.3288 c 1.08763,-0.87862 2.41384,-2.65919 2.96369,-3.97906 0.99502,-2.38842 0.99498,-2.38927 -0.20742,-4.8731 -1.36493,-2.81958 -5.02938,-5.52278 -7.48666,-5.52278 -3.87806,0 -7.47135,3.14352 -8.05693,7.04846 -0.45782,3.0529 1.11319,6.70956 3.53581,8.22996 2.57577,1.61651 6.62111,1.22146 9.25151,-0.90348 z"
     id="path376"
     transform="scale(0.75)" />
  <path
     style="fill:#ffdd55;stroke-width:0.526316"
     d="m 271.84211,382.16432 c -9.30587,-3.01211 -17.14588,-9.62185 -21.07267,-17.76588 -2.124,-4.40512 -2.02803,-6.40546 0.53271,-11.10295 8.38765,-15.38658 25.43983,-28.30822 43.96101,-33.31237 10.15161,-2.74282 30.4661,-1.48105 35.65628,2.21468 4.06099,2.89169 7.63747,17.49873 6.67838,27.27588 -0.78314,7.98357 -4.08483,14.77077 -10.00279,20.56246 -4.48129,4.38569 -9.16661,6.84937 -16.27924,8.56011 -17.41554,4.18881 -33.1593,5.61191 -39.47368,3.56807 z"
     id="path378"
     transform="scale(0.75)" />
  <path
     style="fill:#ffdd55;stroke-width:0.526316"
     d="m 219.95886,148.02632 c -0.47705,-3.79871 0.0693,-27.79554 0.8717,-38.28948 1.4008,-18.319177 5.3938,-26.088258 17.60393,-34.251518 9.14881,-6.11657 18.40997,-9.088637 29.7234,-9.538752 7.78765,-0.309839 12.51616,0.325834 20.31982,2.731672 4.74721,1.463545 7.04861,2.959915 7.04861,4.583004 0,0.59377 -1.43415,4.524982 -3.18699,8.736028 -7.30856,17.558132 -11.34274,32.265796 -12.39607,45.193096 -0.1925,2.3626 -0.5419,4.60612 -0.77644,4.98561 -0.31063,0.5026 -2.97108,0.79317 -9.79663,1.06994 -14.26481,0.57843 -20.55508,1.60539 -27.52808,4.49429 -3.93267,1.62929 -8.73537,4.33987 -10.88673,6.14433 -2.43456,2.042 -9.71695,7.16809 -10.18335,7.16809 -0.23822,0 -0.60415,-1.36184 -0.81317,-3.02631 z"
     id="path380"
     transform="scale(0.75)" />
  <path
     style="fill:#ffdd55;stroke-width:0.526316"
     d="m 236.05263,55.823675 c 0,-1.177229 10.48593,-22.200308 12.83724,-25.737178 3.41216,-5.132634 6.96815,-8.236523 12.3223,-10.755692 4.32152,-2.033307 4.90082,-2.165705 10.36678,-2.369277 10.60764,-0.395067 16.9821,1.811742 23.20321,8.032858 2.81341,2.81341 4.29537,4.861497 5.92908,8.194072 3.20304,6.533845 3.9601,10.107081 3.60117,16.997103 -0.16366,3.141532 -0.42032,5.834633 -0.57036,5.984668 -0.15003,0.150036 -2.88721,-0.823978 -6.0826,-2.164475 -9.09733,-3.81641 -10.29224,-3.990386 -27.39629,-3.988836 -17.01263,0.0015 -18.80797,0.242497 -27.36842,3.673157 -3.03948,1.21809 -5.82237,2.332524 -6.18421,2.476521 -0.36185,0.143998 -0.6579,-0.01032 -0.6579,-0.342921 z"
     id="path382"
     transform="scale(0.75)" />
  <path
     style="fill:#ffdd55;stroke-width:0.526316"
     d="m 366.13097,156.96036 c -5.44968,-14.18818 -15.72927,-27.29696 -27.785,-35.43208 -2.16093,-1.45818 -7.12621,-4.16684 -11.03397,-6.01925 -8.12859,-3.85323 -8.0429,-3.65118 -3.26198,-7.69105 10.88864,-9.200869 18.76145,-12.220944 28.6046,-10.972954 9.00383,1.141575 13.91758,3.546074 20.29994,9.933594 3.66431,3.66727 4.94714,5.39489 6.69093,9.01085 2.35394,4.8812 3.77556,10.5505 3.77556,15.0566 0,3.81355 -1.34594,10.17601 -2.89243,13.67288 -2.34151,5.29459 -10.68426,17.07925 -12.06789,17.04667 -0.31129,-0.007 -1.35969,-2.0797 -2.32976,-4.60526 z"
     id="path384"
     transform="scale(0.75)" />
  <path
     style="fill:#ffdd55;stroke-width:0.526316"
     d="m 133.68659,192.00967 c -0.78694,-2.13836 -5.76887,-18.65415 -6.62484,-21.96228 -1.21974,-4.714 -1.25796,-6.75189 -0.20362,-10.85786 1.33111,-5.18382 3.32312,-8.67145 7.05237,-12.34742 6.74174,-6.64543 15.92148,-9.32032 24.40361,-7.11101 4.6123,1.20135 9.19451,3.7615 12.31178,6.87878 3.36718,3.36717 7.03485,10.5066 7.41158,14.42723 0.23024,2.39615 0.15006,2.60474 -1.28674,3.34774 -0.84276,0.43581 -3.04548,1.06677 -4.89495,1.40214 -11.94322,2.16572 -26.36657,11.59219 -34.73996,22.70452 -1.87148,2.48365 -3.27865,3.92731 -3.42923,3.51816 z"
     id="path386"
     transform="scale(0.75)" />
  <path
     style="fill:#ffdd55;stroke-width:0.526316"
     d="m 131.22722,266.97092 c -0.7724,-0.50506 -3.34403,-2.40684 -5.71473,-4.22618 -7.18201,-5.51166 -17.48862,-9.98832 -27.785006,-12.06835 -6.547958,-1.3228 -22.828913,-1.31236 -29.043273,0.0186 -10.030387,2.14828 -18.411256,5.89277 -25.879264,11.56261 -2.6119,1.983 -4.844067,3.51029 -4.960371,3.39398 -0.628963,-0.62896 -0.788285,-8.65789 -0.251802,-12.68932 2.18742,-16.43747 12.185231,-31.68555 25.174068,-38.39403 10.956492,-5.6588 24.436893,-7.26605 35.992421,-4.29131 13.537477,3.48495 26.298327,14.27056 32.330267,27.3259 3.11923,6.75117 4.00204,10.77158 4.28235,19.50243 0.33752,10.51275 -0.41513,12.30431 -4.14466,9.86566 z"
     id="path390"
     transform="scale(0.75)" />
  <path
     style="fill:#ffdd55;stroke-width:0.526316"
     d="m 18.236549,259.21053 c -3.283853,-10.14669 -1.346197,-27.32014 4.394536,-38.94877 7.369368,-14.92765 23.631251,-27.19612 39.21102,-29.58201 5.727578,-0.87712 22.54469,-0.70262 24.736842,0.25668 1.116764,0.4887 0.749048,0.58084 -2.431058,0.60916 -22.229576,0.19792 -46.936171,16.2522 -57.039155,37.06388 -4.071992,8.38811 -6.634883,18.42265 -7.305552,28.60358 l -0.374281,5.68169 z"
     id="path392"
     transform="scale(0.75)" />
  <path
     style="fill:#ffdd55;stroke-width:0.526316"
     d="m 32.242097,334.81493 c -2.298067,-7.18135 -2.516377,-19.80555 -0.476228,-27.53884 2.490943,-9.44206 7.524483,-18.24421 14.361785,-25.11447 10.563675,-10.61459 23.725955,-16.37215 37.428167,-16.37215 4.994053,0 11.444179,0.87684 11.444179,1.55574 0,0.21728 -2.190789,0.81503 -4.868421,1.32833 -21.484681,4.11861 -39.762653,17.4899 -48.937223,35.80014 -4.154355,8.2911 -7.327271,20.63527 -7.914053,30.78948 l -0.136864,2.36842 z"
     id="path394"
     transform="scale(0.75)" />
  <ellipse
     style="fill:#ffdd55;stroke-width:0.75"
     id="path450"
     cx="65.198044"
     cy="249.62567"
     rx="1.0806307"
     ry="0.36021018" />
</svg>
